<svg fill="none" height="24" viewBox="0 0 24 24" width="24" xmlns="http://www.w3.org/2000/svg">
  <g fill="#000">
    <path d="m5 19.002c0-.002 12-.002 12-.002v-2.002c0 .002-12 .002-12 .002zm-2-2.004c0-1.104.895-1.998 1.994-1.998h12.012c1.101 0 1.994.898 1.994 1.998v2.004c.0003.5293-.2096 1.037-.5835 1.4117-.3739.3746-.8812.5855-1.4105.5863h-12.012c-.52921-.0011-1.03638-.212-1.41021-.5866-.37384-.3746-.58379-.8822-.58379-1.4114z" />
    <path d="m5 15h12v-2h-12zm-2-4h16v6h-16z" />
    <path d="m7 11.002c0-.002 12-.002 12-.002v-2.002c0 .002-12 .002-12 .002zm-2-2.004c0-1.104.895-1.998 1.994-1.998h12.012c1.101 0 1.994.898 1.994 1.998v2.004c.0003.5293-.2096 1.037-.5835 1.4117-.3739.3746-.8812.5855-1.4105.5863h-12.012c-.52921-.0011-1.03638-.212-1.41021-.5866-.37384-.3746-.58379-.8822-.58379-1.4114z" />
    <path d="m5 5v2h12v-2zm-2-.002c0-1.104.895-1.998 1.994-1.998h12.012c1.101 0 1.994.898 1.994 1.998v4.002h-16z" />
  </g>
</svg>